<mxfile host="app.diagrams.net" modified="2023-06-04T14:28:22.453Z" agent="Mozilla/5.0 (Macintosh; Intel Mac OS X 10_15_7) AppleWebKit/537.36 (KHTML, like Gecko) Chrome/113.0.0.0 Safari/537.36" version="21.3.7" etag="oHbX6v64usx3F23AGG0-" type="github">
  <diagram name="หน้า-1" id="eQ8bWdlU-Uv5tswqMHm1">
    <mxGraphModel>
      <root>
        <mxCell id="0" />
        <mxCell id="1" parent="0" />
      </root>
    </mxGraphModel>
  </diagram>
</mxfile>
